<?xml version="1.0" encoding="UTF-8"?>
<svg version="1.1" xmlns="http://www.w3.org/2000/svg" width="257" height="257">
<path d="M0 0 C83.16 0 166.32 0 252 0 C252 83.82 252 167.64 252 254 C168.84 254 85.68 254 0 254 C0 170.18 0 86.36 0 0 Z " fill="#FEFEFE" transform="translate(5,3)"/>
<path d="M0 0 C3.00696004 1.35073537 5.11309935 2.85790871 7.44892883 5.17477417 C8.11217667 5.82804687 8.7754245 6.48131958 9.45877075 7.15438843 C10.1753183 7.8702713 10.89186584 8.58615417 11.63012695 9.32373047 C12.39309586 10.07837585 13.15606476 10.83302124 13.94215393 11.61053467 C16.46301464 14.10729337 18.97614371 16.61165388 21.48828125 19.1171875 C23.23366101 20.85360441 24.97912003 22.58994166 26.72465515 24.32620239 C30.38080113 27.96585758 34.0325288 31.60988515 37.68188477 35.25634766 C42.36911264 39.9381775 47.07229731 44.60362233 51.77956867 49.2652874 C55.38836772 52.84442137 58.98593785 56.43467955 62.5804348 60.02817154 C64.31039317 61.75391025 66.04449331 63.47550703 67.78270912 65.19292831 C70.20600692 67.58951987 72.61316633 70.00123554 75.0168457 72.41748047 C75.7435144 73.12931488 76.47018311 73.84114929 77.21887207 74.57455444 C77.86802078 75.2334668 78.51716949 75.89237915 79.18598938 76.57125854 C79.75691472 77.14017256 80.32784006 77.70908657 80.91606617 78.2952404 C82 80 82 80 81.87083817 81.99678612 C80.85244218 84.33943147 79.69106168 85.67830946 77.88059998 87.48016357 C77.21450714 88.1503804 76.54841431 88.82059723 75.86213684 89.51112366 C75.12702377 90.2354509 74.39191071 90.95977814 73.63452148 91.70605469 C72.47850433 92.86272896 72.47850433 92.86272896 71.2991333 94.04277039 C68.74683244 96.59297916 66.18406526 99.13239418 63.62109375 101.671875 C61.85067101 103.43670332 60.0809089 105.2021946 58.31178284 106.96832275 C54.12761092 111.14220574 49.93681067 115.3093551 45.74275595 119.47330117 C40.49943091 124.67979949 35.26645743 129.89666392 30.03320312 135.11328125 C20.69709332 144.41720523 11.35180714 153.71185565 2 163 C-1.03229137 161.64186126 -3.13403322 160.11687802 -5.48016357 157.77380371 C-6.48548882 156.77693794 -6.48548882 156.77693794 -7.51112366 155.75993347 C-8.59761452 154.66736992 -8.59761452 154.66736992 -9.70605469 153.55273438 C-10.47717087 152.78512283 -11.24828705 152.01751129 -12.04277039 151.22663879 C-14.59086128 148.68735271 -17.13156465 146.14081805 -19.671875 143.59375 C-21.43706469 141.82990703 -23.20255123 140.06636109 -24.96832275 138.30310059 C-29.14070574 134.13404479 -33.30789883 129.95984966 -37.47330117 125.78382063 C-41.27331258 121.97522086 -45.08062479 118.17398888 -48.88981891 114.37457609 C-53.00888143 110.26566858 -57.12232046 106.15117387 -61.23337555 102.03425598 C-62.98468254 100.28161081 -64.73748744 98.53046114 -66.49178314 96.7808075 C-68.93655606 94.34108647 -71.37487137 91.89509359 -73.81152344 89.44726562 C-74.91015968 88.35470207 -74.91015968 88.35470207 -76.0309906 87.24006653 C-76.68992813 86.57548935 -77.34886566 85.91091217 -78.027771 85.22619629 C-78.89383783 84.35899837 -78.89383783 84.35899837 -79.77740097 83.47428131 C-81 82 -81 82 -81 80 C-79.51751709 78.53696346 -79.51751709 78.53696346 -77.47558594 76.8434906 C-73.24596053 73.24415698 -69.30537066 69.44042204 -65.390625 65.50415039 C-64.67744614 64.79111755 -63.96426727 64.07808472 -63.22947693 63.34344482 C-60.90060298 61.01388082 -58.57527938 58.68080774 -56.25 56.34765625 C-54.62497505 54.7207639 -52.99972745 53.09409392 -51.37426758 51.46763611 C-47.11750917 47.20707793 -42.86376371 42.94352411 -38.61065674 38.67932129 C-34.26179868 34.32019426 -29.91007292 29.96393212 -25.55859375 25.60742188 C-17.03626693 17.07440258 -8.51712308 8.53821312 0 0 Z " fill="#1C1C1C" transform="translate(133,50)"/>
<path d="M0 0 C4.03070124 1.85723377 6.78284024 4.52717467 9.859375 7.6640625 C10.683237 8.49216934 10.683237 8.49216934 11.52374268 9.33700562 C13.27059293 11.09501815 15.01034601 12.8598689 16.75 14.625 C17.93573591 15.8207708 19.1219288 17.01608865 20.30859375 18.2109375 C23.21105085 21.13540253 26.1071641 24.06601874 29 27 C24.43852453 32.47313966 19.59258679 37.53954809 14.5390625 42.55859375 C13.74849457 43.34774673 12.95792664 44.13689972 12.1434021 44.94996643 C9.63962374 47.44818661 7.13237525 49.94289044 4.625 52.4375 C2.91773752 54.13974208 1.21070391 55.84221373 -0.49609375 57.54492188 C-4.66141898 61.69927363 -8.82959219 65.85075081 -13 70 C-17.03070124 68.14276623 -19.78284024 65.47282533 -22.859375 62.3359375 C-23.40861633 61.78386627 -23.95785767 61.23179504 -24.52374268 60.66299438 C-26.27059293 58.90498185 -28.01034601 57.1401311 -29.75 55.375 C-30.93573591 54.1792292 -32.1219288 52.98391135 -33.30859375 51.7890625 C-36.21105085 48.86459747 -39.1071641 45.93398126 -42 43 C-37.43852453 37.52686034 -32.59258679 32.46045191 -27.5390625 27.44140625 C-26.74849457 26.65225327 -25.95792664 25.86310028 -25.1434021 25.05003357 C-22.63962374 22.55181339 -20.13237525 20.05710956 -17.625 17.5625 C-15.91773752 15.86025792 -14.21070391 14.15778627 -12.50390625 12.45507812 C-8.33858102 8.30072637 -4.17040781 4.14924919 0 0 Z " fill="#FCFCFC" transform="translate(148,104)"/>
<path d="M0 0 C3.93459408 1.35144753 6.39829162 4.19824667 9.25 7.125 C10.14203125 8.03507812 11.0340625 8.94515625 11.953125 9.8828125 C12.62859375 10.58148438 13.3040625 11.28015625 14 12 C9.88590566 16.903976 5.61472792 21.52535807 1.07666016 26.03686523 C0.08048172 27.03326271 0.08048172 27.03326271 -0.93582153 28.04978943 C-3.10849559 30.22177269 -5.28467872 32.39020279 -7.4609375 34.55859375 C-8.97715772 36.07294682 -10.49315576 37.58752237 -12.00894165 39.10231018 C-15.98181703 43.07138372 -19.95768731 47.03744381 -23.9342041 51.00286865 C-27.99832554 55.05672562 -32.05958622 59.11344637 -36.12109375 63.16992188 C-44.07794327 71.11607526 -52.03796194 79.05904577 -60 87 C-63.85027991 85.21799313 -66.2799142 82.92324595 -69.25 79.875 C-70.14203125 78.96492188 -71.0340625 78.05484375 -71.953125 77.1171875 C-72.96632812 76.06917969 -72.96632812 76.06917969 -74 75 C-72.70209407 72.14320295 -71.33199178 70.08239416 -69.11547852 67.86824036 C-68.52662872 67.27519608 -67.93777893 66.68215179 -67.33108521 66.07113647 C-66.36475662 65.11323715 -66.36475662 65.11323715 -65.37890625 64.13598633 C-64.69907684 63.45425858 -64.01924744 62.77253082 -63.31881714 62.07014465 C-61.07156769 59.81919193 -58.81720123 57.57551783 -56.5625 55.33203125 C-55.00036794 53.7710912 -53.43860525 52.20978141 -51.87719727 50.64811707 C-48.60513562 47.37761944 -45.32974106 44.11050951 -42.05175781 40.84594727 C-37.84308097 36.65428115 -33.64103805 32.45604119 -29.4412384 28.25548267 C-26.2177265 25.0322422 -22.9916186 21.81161094 -19.76461792 18.59186363 C-18.21381492 17.04424974 -16.66362295 15.4960233 -15.11404419 13.94718361 C-12.95223388 11.78753308 -10.78716787 9.63120298 -8.62109375 7.47583008 C-7.65476517 6.50882172 -7.65476517 6.50882172 -6.66891479 5.52227783 C-2.22895753 1.11447877 -2.22895753 1.11447877 0 0 Z " fill="#F7F7F7" transform="translate(133,57)"/>
<path d="M0 0 C1.10433586 0.94511484 2.20846118 1.89047569 3.3125 2.8359375 C3.92738281 3.3623584 4.54226562 3.8887793 5.17578125 4.43115234 C7.61670109 6.53036954 9.9218998 8.53225601 12 11 C11.88885842 15.28864607 8.61756104 17.78257483 5.74584961 20.59472656 C4.92633064 21.41490265 4.92633064 21.41490265 4.09025574 22.25164795 C2.28463897 24.05517657 0.46863268 25.84784979 -1.34765625 27.640625 C-2.60241363 28.88978654 -3.85650982 30.13961257 -5.10997009 31.39007568 C-8.40944481 34.67810078 -11.71782964 37.95701707 -15.02813721 41.23413086 C-18.4050347 44.58033021 -21.77344655 47.93504733 -25.14257812 51.2890625 C-31.75343144 57.86774957 -38.37372695 64.43684703 -45 71 C-48.63303084 69.30413874 -50.94549046 67.26199512 -53.75 64.375 C-54.54921875 63.55773437 -55.3484375 62.74046875 -56.171875 61.8984375 C-56.77515625 61.27195313 -57.3784375 60.64546875 -58 60 C-56.3993244 56.02473776 -53.62856444 53.35979696 -50.63232422 50.40527344 C-50.08583221 49.85848938 -49.53934021 49.31170532 -48.97628784 48.74835205 C-47.17378907 46.94724351 -45.36431604 45.15331753 -43.5546875 43.359375 C-42.30157633 42.10999505 -41.04890681 40.86017199 -39.79666138 39.60992432 C-36.50324045 36.32413128 -33.20385709 33.0443893 -29.90319824 29.76586914 C-26.53471006 26.41785747 -23.1718924 23.06416093 -19.80859375 19.7109375 C-13.21126824 13.13504704 -6.60763017 6.56553484 0 0 Z " fill="#F9F9F9" transform="translate(196,119)"/>
<path d="M0 0 C3.93467549 1.59247554 6.57577776 4.30662369 9.50292969 7.27587891 C10.03996017 7.81261734 10.57699066 8.34935577 11.1302948 8.90235901 C12.89893859 10.67239283 14.66039824 12.44939857 16.421875 14.2265625 C17.64883466 15.45725344 18.87623749 16.6875027 20.10406494 17.91732788 C23.33067488 21.15156516 26.55123291 24.39176408 29.77056885 27.63323975 C33.05825672 30.94140534 36.35163068 34.24389946 39.64453125 37.546875 C46.10193298 44.02571079 52.55295568 50.51085869 59 57 C57.30413874 60.63303084 55.26199512 62.94549046 52.375 65.75 C51.55773437 66.54921875 50.74046875 67.3484375 49.8984375 68.171875 C49.27195313 68.77515625 48.64546875 69.3784375 48 70 C44.06532451 68.40752446 41.42422224 65.69337631 38.49707031 62.72412109 C37.96003983 62.18738266 37.42300934 61.65064423 36.8697052 61.09764099 C35.10106141 59.32760717 33.33960176 57.55060143 31.578125 55.7734375 C30.35116534 54.54274656 29.12376251 53.3124973 27.89593506 52.08267212 C24.66932512 48.84843484 21.44876709 45.60823592 18.22943115 42.36676025 C14.94174328 39.05859466 11.64836932 35.75610054 8.35546875 32.453125 C1.89806702 25.97428921 -4.55295568 19.48914131 -11 13 C-9.30413874 9.36696916 -7.26199512 7.05450954 -4.375 4.25 C-3.55773437 3.45078125 -2.74046875 2.6515625 -1.8984375 1.828125 C-0.95871094 0.92320312 -0.95871094 0.92320312 0 0 Z " fill="#FBFBFB" transform="translate(87,136)"/>
<path d="M0 0 C5.47313966 4.56147547 10.53954809 9.40741321 15.55859375 14.4609375 C16.34774673 15.25150543 17.13689972 16.04207336 17.94996643 16.8565979 C20.44818661 19.36037626 22.94289044 21.86762475 25.4375 24.375 C27.13974208 26.08226248 28.84221373 27.78929609 30.54492188 29.49609375 C34.69927363 33.66141898 38.85075081 37.82959219 43 42 C42.15356901 43.04796218 41.29723808 44.08792692 40.4375 45.125 C39.72400391 45.99511719 39.72400391 45.99511719 38.99609375 46.8828125 C36.22540048 49.82159088 33.06660344 52.37148276 30 55 C16.14 41.14 2.28 27.28 -12 13 C-8.04354855 8.38413998 -4.30058488 4.19819 0 0 Z " fill="#FCFCFC" transform="translate(150,73)"/>
<path d="M0 0 C1.11677492 0.94947559 2.23244654 1.90024897 3.34765625 2.8515625 C3.96906494 3.38088379 4.59047363 3.91020508 5.23071289 4.45556641 C7.2481965 6.21665393 9.14412108 8.06988592 11 10 C9.54131246 13.35999018 7.69131052 15.55203106 5.10107422 18.12597656 C4.3003952 18.92650452 3.49971619 19.72703247 2.67477417 20.55181885 C1.81014557 21.40612488 0.94551697 22.26043091 0.0546875 23.140625 C-0.8303244 24.02280701 -1.7153363 24.90498901 -2.62716675 25.81390381 C-4.97450131 28.15194543 -7.32606785 30.48555874 -9.67980957 32.81713867 C-12.08313927 35.19996526 -14.48077767 37.58850348 -16.87890625 39.9765625 C-21.58071467 44.65631862 -26.28818664 49.33031867 -31 54 C-32.11677492 53.05052441 -33.23244654 52.09975103 -34.34765625 51.1484375 C-35.27976929 50.35445557 -35.27976929 50.35445557 -36.23071289 49.54443359 C-38.2481965 47.78334607 -40.14412108 45.93011408 -42 44 C-40.54131246 40.64000982 -38.69131052 38.44796894 -36.10107422 35.87402344 C-34.90005569 34.67323151 -34.90005569 34.67323151 -33.67477417 33.44818115 C-32.81014557 32.59387512 -31.94551697 31.73956909 -31.0546875 30.859375 C-30.1696756 29.97719299 -29.2846637 29.09501099 -28.37283325 28.18609619 C-26.02549869 25.84805457 -23.67393215 23.51444126 -21.32019043 21.18286133 C-18.91686073 18.80003474 -16.51922233 16.41149652 -14.12109375 14.0234375 C-9.41928533 9.34368138 -4.71181336 4.66968133 0 0 Z " fill="#FEFEFE" transform="translate(134,89)"/>
</svg>
