<svg xmlns="http://www.w3.org/2000/svg" version="1.0" width="25" height="25"
    viewBox="0 0 130.000000 150.000000" preserveAspectRatio="xMidYMid meet" class="svg-icon">
    <g transform="translate(0.000000,138.000000) scale(0.100000,-0.100000)" fill="#000000" stroke="none">
      <path
        d="M667 1164 c-4 -4 -7 -29 -7 -56 l0 -48 -138 0 c-163 0 -194 -11 -229 -80 -22 -43 -23 -54 -23 -310 0 -239 2 -269 19 -307 27 -59 65 -76 181 -81 l95 -4 50 -77 c28 -42 58 -77 67 -79 12 -2 33 21 70 76 l53 80 95 4 c105 4 145 20 174 68 14 24 16 68 16 320 0 276 -1 294 -20 325 -32 52 -79 65 -230 65 l-129 0 -3 52 c-2 38 -7 54 -18 56 -9 1 -19 0 -23 -4z m348 -189 c25 -24 25 -25 25 -220 l0 -195 -355 0 -355 0 0 195 c0 195 0 196 25 220 l24 25 306 0 306 0 24 -25z m23 -527 c3 -51 0 -61 -22 -83 -24 -24 -31 -25 -130 -25 l-106 0 -46 -70 c-26 -38 -49 -70 -51 -70 -2 0 -24 32 -49 70 l-45 70 -105 0 c-98 0 -107 2 -129 25 -20 20 -25 34 -25 78 0 29 3 57 7 60 4 4 162 6 352 5 l346 -3 3 -57z" />
      <path d="M485 794 c-20 -21 -16 -73 7 -88 28 -17 72 4 76 38 6 52 -48 85 -83 50z" />
      <path d="M822 803 c-7 -3 -18 -16 -23 -30 -20 -53 45 -97 85 -57 43 42 -6 110 -62 87z" />
      <path
        d="M115 878 c-3 -8 -4 -68 -3 -134 3 -115 4 -119 26 -122 l23 -3 -3 133 c-3 117 -5 133 -21 136 -9 2 -19 -3 -22 -10z" />
      <path
        d="M1212 878 c-14 -14 -17 -225 -3 -246 5 -8 17 -12 27 -10 17 3 19 14 19 133 0 108 -3 130 -15 133 -9 1 -21 -3 -28 -10z" />
    </g>
  </svg>